# xmcd CD database file
#
# Track frame offsets:
#	150
#	6497
#	31425
#	55059
#	73092
#	93005
#	118087
#	140483
#	159036
#	180865
#	211758
#	224860
#	243346
#
# Disc length: 3525 seconds
#
# Revision: 1
# Processed by: cddbd v1.5.2PL0 Copyright (c) Steve Scherf et al.
# Submitted via: CDex 2.02
#
DISCID=b00dc30d
DTITLE=Papa Binnes Jazz Band - 50 Jahre and 'n paar Zerquetschte
DYEAR=2011
DGENRE=Jazz
TTITLE0=Team Song (W. Schmahl)
TTITLE1=Broadway Swing (H. Wood)
TTITLE2=Alice Blue Gown (J. McCarthy - E. Day)
TTITLE3=They Can't Take That Away From Me (G. Gershwin)
TTITLE4=Stars Fell On Alabama (F.Perkins)
TTITLE5=Sweet Georgia Brown (B. Bernie)
TTITLE6=On A Clear Day (B. Lane - A. J. Lerner)
TTITLE7=My Little Suede Shoes (Ch. Parker)
TTITLE8=I Believe In  Miracles (M. Campanni)
TTITLE9=St. Louis Blues (W. C. Handy)
TTITLE10=Binnes Record Swing (T. W. Maria)
TTITLE11=Just A Gigolo (L. Casucci - I. Caesar - J. Brammer)
TTITLE12=Bill Bailey, Won't You Pleas Come Home (H. Cannon)
EXTD=YEAR: 2011
EXTT0=
EXTT1=
EXTT2=
EXTT3=
EXTT4=
EXTT5=
EXTT6=
EXTT7=
EXTT8=
EXTT9=
EXTT10=
EXTT11=
EXTT12=
PLAYORDER=
